<svg xmlns="http://www.w3.org/2000/svg" version="1.1" xmlns:xlink="http://www.w3.org/1999/xlink" xmlns:svgjs="http://svgjs.dev/svgjs" width="2000" height="712" viewBox="0 0 2000 712"><g transform="matrix(1,0,0,1,-1.2112696095522324,-0.663272532661324)"><svg viewBox="0 0 396 141" data-background-color="#edffde" preserveAspectRatio="xMidYMid meet" height="712" width="2000" xmlns="http://www.w3.org/2000/svg" xmlns:xlink="http://www.w3.org/1999/xlink"><g id="tight-bounds" transform="matrix(1,0,0,1,0.24008861730862918,0.13148171916270712)"><svg viewBox="0 0 395.52 140.73716796186923" height="140.73716796186923" width="395.52"><g><svg viewBox="0 0 395.52 140.73716796186923" height="140.73716796186923" width="395.52"><g><svg viewBox="0 0 395.52 140.73716796186923" height="140.73716796186923" width="395.52"><g id="textblocktransform"><svg viewBox="0 0 395.52 140.73716796186923" height="140.73716796186923" width="395.52" id="textblock"><g><svg viewBox="0 0 395.52 140.73716796186923" height="140.73716796186923" width="395.52"><path d="M394.594 30.185C392.735 15.577 387.435 11.516 387.435 11.516 371.165-3.531 350.86-0.288 332.619 1.874 300.414 1.962 268.339 5.176 236.208 6.9 168.767 7.162 100.749 2.838 33.643 13.503 27.339 16.775-6.54 14.145 1.121 32.055 3.129 39.506 10.456 47.774 10.232 54.611 11.236 55.809 12.631 53.062 13.226 54.786 15.309 59.432 18.711 57.24 21.501 59.987 17.614 67.32 20.403 73.426 23.062 79.825 18.377 81.49 12.371 80.702 9.675 86.224 9.396 90.226 7.89 89.467 6.235 89.291 5.026 89.174 2.59 89.613 2.999 90.869 4.394 95.164-1.594 97.647 2.162 101.855-0.422 106.412 3.948 110.357 3.353 115.294 3.278 116.288 3.687 117.135 4.338 117.369 7.22 118.625 3.018 121.079 3.464 123.738 33.029 141.911 65.104 129.348 95.394 137.704 103.259 131.86 97.346 139.778 100.489 138.551 102.943 137.119 104.728 143.05 107.499 139.691 107.927 138.726 107.276 136.447 108.8 136.886 109.6 137.119 110.307 137.061 110.418 135.717 110.586 133.701 109.117 134.957 108.726 133.906 112.947 128.588 111.906 141.239 115.866 140.713 115.68 139.165 114.528 136.944 116.889 137.236 119.232 135.016 119.306 133.175 121.389 138.171 121.463 139.252 121.835 140.012 122.43 140.538 128.938 135.103 135.409 142.466 142.233 140.012 146.417 137.324 150.433 141.473 154.672 140.45 156.16 139.632 157.666 138.171 159.098 140.625 176.632 141.151 195.319 138.96 211.943 140.713 256.364 137.441 303.836 142.057 350.674 137.733 361.719 136.068 373.192 133.701 383.958 131.802 383.958 131.802 392.679 126.601 392.679 103.228S394.538 82.776 394.817 64.165C395.096 45.554 396.398 44.794 394.538 30.185Z" opacity="1" fill="#bcec7e" data-fill-palette-color="tertiary"></path><g transform="matrix(1,0,0,1,55.76832,26.230666666666668)"><svg width="283.98335999999995" viewBox="-1.85 -49.3 160.84 50" height="88.27583462853589" data-palette-color="#000000"><path d="M-0.4 0.7L-0.4 0.7Q-1.05 0.7-1.45 0.1-1.85-0.5-1.85-1.45L-1.85-1.45Q-1.85-2.45-1.38-3.03-0.9-3.6-0.1-3.6L-0.1-3.6Q1.7-3.6 3.8-5.05 5.9-6.5 7.85-9.05L7.85-9.05Q7.05-12.7 7.05-19.25L7.05-19.25 7.05-33.15Q7.05-37.3 7.33-39.85 7.6-42.4 8.25-44.1L8.25-44.1Q9.2-46.6 11-47.95 12.8-49.3 15.25-49.3L15.25-49.3Q18.65-49.3 20.7-45.98 22.75-42.65 22.75-37.05L22.75-37.05Q22.75-32.3 21.58-27.25 20.4-22.2 18.15-17.28 15.9-12.35 12.7-8L12.7-8Q12.85-7.65 13-7.35L13-7.35Q14.05-5.5 15.48-4.63 16.9-3.75 19-3.75L19-3.75Q21.25-3.75 22.95-5 24.65-6.25 25.6-8.47 26.55-10.7 26.55-13.6L26.55-13.6Q26.55-14.65 26.4-15.7L26.4-15.7Q23.25-17.7 22.25-19.25L22.25-19.25Q22.6-20.25 23.38-21.18 24.15-22.1 25.1-22.68 26.05-23.25 26.9-23.25L26.9-23.25Q28.05-23.25 29-22.03 29.95-20.8 30.53-18.78 31.1-16.75 31.1-14.3L31.1-14.3Q31.1-9.8 29.63-6.48 28.15-3.15 25.43-1.33 22.7 0.5 19 0.5L19 0.5Q12.45 0.5 9.55-4.4L9.55-4.4Q4.95 0.7-0.4 0.7ZM11.25-33.75L11.25-20.25Q11.25-16.2 11.5-13.6L11.5-13.6Q14.95-19.5 16.73-25.55 18.5-31.6 18.5-37.1L18.5-37.1Q18.5-45.15 15-45.15L15-45.15Q12.95-45.15 12.05-42.4L12.05-42.4Q11.25-39.95 11.25-33.75L11.25-33.75ZM34.1-3.6L34.1-3.6Q35.75-3.6 37.32-5.18 38.9-6.75 40-9.4L40-9.4Q39.8-10.6 39.8-11.85L39.8-11.85Q39.8-15.45 41.35-18.25 42.9-21.05 45.57-22.68 48.25-24.3 51.6-24.3L51.6-24.3Q54.95-24.3 57.6-22.68 60.25-21.05 61.77-18.25 63.3-15.45 63.3-11.85L63.3-11.85Q63.3-8.25 61.77-5.4 60.25-2.55 57.62-0.93 55 0.7 51.6 0.7L51.6 0.7Q48.55 0.7 46.07-0.63 43.6-1.95 42-4.25L42-4.25Q38.9 0.7 33.75 0.7L33.75 0.7Q33.1 0.7 32.7 0.1 32.3-0.5 32.3-1.45L32.3-1.45Q32.3-3.6 34.1-3.6ZM51.55-3.6L51.55-3.6Q54.75-3.6 56.67-5.85 58.6-8.1 58.6-11.85L58.6-11.85Q58.6-13.7 58.05-15.25L58.05-15.25Q55.05-15.35 52.62-16.45 50.2-17.55 48.8-19.45L48.8-19.45Q46.8-18.6 45.65-16.57 44.5-14.55 44.5-11.75L44.5-11.75Q44.5-8.1 46.42-5.85 48.35-3.6 51.55-3.6ZM65.65-3.6L65.65-3.6Q67.35-3.6 68.97-5.28 70.6-6.95 71.7-9.8L71.7-9.8Q71.65-10.5 71.65-11.2L71.65-11.2Q71.65-15 73.15-17.95 74.65-20.9 77.22-22.6 79.8-24.3 83.1-24.3L83.1-24.3Q84.85-24.3 86.55-23.63 88.25-22.95 89.4-21.8L89.4-21.8 89.4-23.85Q89.85-24 90.45-24.1 91.05-24.2 91.7-24.2L91.7-24.2Q92.9-24.2 93.95-23.85L93.95-23.85 93.95-9.2Q93.95-6.55 94.77-5.08 95.6-3.6 97.55-3.6L97.55-3.6Q98.4-3.6 98.7-2.9 99-2.2 99-1.4L99-1.4Q99-0.6 98.57 0.05 98.15 0.7 97.2 0.7L97.2 0.7Q92.3 0.7 90.65-3.7L90.65-3.7Q89.2-1.65 87.02-0.48 84.85 0.7 82.2 0.7L82.2 0.7Q79.3 0.7 77.07-0.58 74.85-1.85 73.45-4.1L73.45-4.1Q70.35 0.7 65.3 0.7L65.3 0.7Q64.65 0.7 64.25 0.1 63.85-0.5 63.85-1.45L63.85-1.45Q63.85-3.6 65.65-3.6ZM76.3-11.2L76.3-11.2Q76.3-7.65 77.92-5.63 79.55-3.6 82.4-3.6L82.4-3.6Q85.55-3.6 87.47-5.75 89.4-7.9 89.4-11.4L89.4-11.4 89.4-17Q88.4-18.35 86.85-19.18 85.3-20 83.65-20L83.65-20Q81.5-20 79.85-18.85 78.2-17.7 77.25-15.73 76.3-13.75 76.3-11.2ZM97.19 0.7L97.19 0.7Q96.54 0.7 96.14 0.1 95.74-0.5 95.74-1.45L95.74-1.45Q95.74-3.6 97.54-3.6L97.54-3.6Q99.74-3.6 101.47-5.43 103.19-7.25 104.22-10.4 105.24-13.55 105.24-17.4L105.24-17.4Q105.24-18.3 105.14-19.05 105.04-19.8 104.89-20.3L104.89-20.3Q104.44-20.75 103.92-21.75 103.39-22.75 103.02-23.88 102.64-25 102.64-25.7L102.64-25.7Q103.24-26.65 104.57-27.18 105.89-27.7 107.49-27.45L107.49-27.45Q108.44-25.7 109.04-23.05L109.04-23.05Q110.54-23.1 113.09-23.7L113.09-23.7Q114.69-24.05 115.67-24.18 116.64-24.3 117.34-24.3L117.34-24.3Q120.04-24.3 121.59-22.28 123.14-20.25 123.14-16.8L123.14-16.8 123.14-8.75Q123.14-6 123.87-4.8 124.59-3.6 126.19-3.6L126.19-3.6Q126.89-3.6 127.27-3 127.64-2.4 127.64-1.4L127.64-1.4Q127.64-0.6 127.22 0.05 126.79 0.7 125.84 0.7L125.84 0.7Q118.59 0.7 118.59-8.2L118.59-8.2 118.59-15.95Q118.59-18.2 118.09-19.1 117.59-20 116.29-20L116.29-20Q115.84-20 115.29-19.9 114.74-19.8 113.34-19.5L113.34-19.5Q110.89-19 109.64-18.9L109.64-18.9Q109.69-18.1 109.69-17.3L109.69-17.3Q109.69-11.9 108.14-7.85 106.59-3.8 103.77-1.55 100.94 0.7 97.19 0.7ZM126.19-3.6L126.19-3.6Q127.89-3.6 129.52-5.28 131.14-6.95 132.24-9.8L132.24-9.8Q132.19-10.5 132.19-11.2L132.19-11.2Q132.19-15 133.69-17.95 135.19-20.9 137.77-22.6 140.34-24.3 143.64-24.3L143.64-24.3Q145.39-24.3 147.09-23.63 148.79-22.95 149.94-21.8L149.94-21.8 149.94-42Q150.89-42.35 152.24-42.35L152.24-42.35Q153.39-42.35 154.49-42L154.49-42 154.49-8.75Q154.49-6 155.22-4.8 155.94-3.6 157.54-3.6L157.54-3.6Q158.24-3.6 158.62-3 158.99-2.4 158.99-1.4L158.99-1.4Q158.99-0.6 158.57 0.05 158.14 0.7 157.19 0.7L157.19 0.7Q152.44 0.7 150.79-3.2L150.79-3.2Q149.34-1.35 147.29-0.33 145.24 0.7 142.74 0.7L142.74 0.7Q139.84 0.7 137.62-0.58 135.39-1.85 133.99-4.1L133.99-4.1Q130.89 0.7 125.84 0.7L125.84 0.7Q125.19 0.7 124.79 0.1 124.39-0.5 124.39-1.45L124.39-1.45Q124.39-3.6 126.19-3.6ZM136.84-11.2L136.84-11.2Q136.84-7.65 138.47-5.63 140.09-3.6 142.94-3.6L142.94-3.6Q146.09-3.6 148.02-5.75 149.94-7.9 149.94-11.4L149.94-11.4 149.94-17Q148.94-18.35 147.39-19.18 145.84-20 144.19-20L144.19-20Q142.04-20 140.39-18.85 138.74-17.7 137.79-15.73 136.84-13.75 136.84-11.2Z" opacity="1" transform="matrix(1,0,0,1,0,0)" fill="#000000" class="wordmark-text-0" data-fill-palette-color="quaternary" id="text-0"></path></svg></g></svg></g></svg></g></svg></g><g></g></svg></g><defs></defs></svg><rect width="395.52" height="140.73716796186923" fill="none" stroke="none" visibility="hidden"></rect></g></svg></g></svg>